<svg width="800" height="800" viewBox="0 0 800 800" fill="none" xmlns="http://www.w3.org/2000/svg">
<path d="M652.057 233.333C659.68 189.841 626.21 150 582.057 150H217.929C173.774 150 140.307 189.841 147.928 233.333" stroke="white" stroke-width="50"/>
<path d="M583.33 150C584.277 141.364 584.75 137.045 584.757 133.478C584.833 99.3574 559.13 70.688 525.203 67.0474C521.657 66.6667 517.313 66.6667 508.627 66.6667H291.366C282.678 66.6667 278.334 66.6667 274.787 67.0474C240.861 70.688 215.16 99.3574 215.235 133.478C215.242 137.045 215.715 141.363 216.661 150" stroke="white" stroke-width="50"/>
<path d="M706.45 559.767C694.79 642.463 688.963 683.81 659.057 708.573C629.15 733.333 585.04 733.333 496.82 733.333H303.179C214.96 733.333 170.851 733.333 140.945 708.573C111.038 683.81 105.209 642.463 93.5493 559.767L79.4503 459.767C64.5826 354.313 57.149 301.588 88.744 267.461C120.339 233.333 176.586 233.333 289.08 233.333H510.92C623.413 233.333 679.66 233.333 711.257 267.461C736.217 294.423 736.817 332.993 728.64 400" stroke="white" stroke-width="50" stroke-linecap="round"/>
<path d="M486.04 453.863C504.653 465.403 504.653 495.273 486.04 506.813L373.653 576.483C355.563 587.697 333.333 573.103 333.333 550.01V410.667C333.333 387.577 355.563 372.98 373.653 384.193L486.04 453.863Z" stroke="white" stroke-width="50"/>
</svg>
